<mxfile host="app.diagrams.net" modified="2024-12-05T03:17:51.242Z" agent="Mozilla/5.0 (Windows NT 10.0; Win64; x64) AppleWebKit/537.36 (KHTML, like Gecko) Chrome/130.0.0.0 Safari/537.36" version="24.2.3" etag="yuDUMU6EFsSlV_86GQfd" type="github">
  <diagram name="Page-1" id="bqCevmDymXkDsIOGWCyZ">
    <mxGraphModel>
      <root>
        <mxCell id="0" />
        <mxCell id="1" parent="0" />
      </root>
    </mxGraphModel>
  </diagram>
</mxfile>
